<?xml version="1.0" encoding="UTF-8"?>
<svg version="1.1" xmlns="http://www.w3.org/2000/svg" width="74" height="74">
<path d="M0 0 C8.49480131 0.42474007 18.1707153 2.4330307 24.25 8.875 C26.30303719 12.54113785 26.41394276 14.86057237 26 19 C24 19 24 19 22.375 17.5 C21.92125 17.005 21.4675 16.51 21 16 C19.70366379 17.06645115 19.70366379 17.06645115 19.9375 19.5625 C19.958125 20.366875 19.97875 21.17125 20 22 C24.17862632 20.68278915 24.17862632 20.68278915 28.125 18.8125 C30 18 30 18 32.125 18.1875 C34 19 34 19 36 22 C35.61021441 26.54749853 33.64443099 30.78167704 32 35 C32.99 34.67 33.98 34.34 35 34 C36.13545562 31.70465742 36.13545562 31.70465742 37 29 C37.9375 26.25 37.9375 26.25 39 24 C39.99 23.67 40.98 23.34 42 23 C41.60140439 24.92050612 41.18034074 26.83635712 40.75 28.75 C40.51796875 29.81734375 40.2859375 30.8846875 40.046875 31.984375 C38.8890858 35.31949912 37.77341003 36.84750266 35 39 C31.75 39.25 31.75 39.25 29 39 C29.495 41.97 29.495 41.97 30 45 C29.34 45 28.68 45 28 45 C28.495 46.98 28.495 46.98 29 49 C28.01 49 27.02 49 26 49 C26 49.66 26 50.32 26 51 C24.0625 50.6875 24.0625 50.6875 22 50 C21.67 49.01 21.34 48.02 21 47 C18.7986134 50.80427492 18.7986134 50.80427492 18 55 C16.02 55.66 14.04 56.32 12 57 C12 53 12 53 13 51 C9.535 51.495 9.535 51.495 6 52 C6 50.02 6 48.04 6 46 C4.02 45.67 2.04 45.34 0 45 C0 45.99 0 46.98 0 48 C-1.32 48 -2.64 48 -4 48 C-4.50559908 46.56445975 -5.0042749 45.1264798 -5.5 43.6875 C-5.7784375 42.88699219 -6.056875 42.08648437 -6.34375 41.26171875 C-7 39 -7 39 -7 36 C-8.60414215 37.18523997 -8.60414215 37.18523997 -10 39 C-10.25069913 41.62570704 -10.25069913 41.62570704 -10 44 C-11.98 43.34 -13.96 42.68 -16 42 C-16.90413673 38.16275828 -17.10576898 34.62497726 -17.0625 30.6875 C-17.05347656 29.61886719 -17.04445313 28.55023438 -17.03515625 27.44921875 C-17.02355469 26.64097656 -17.01195312 25.83273438 -17 25 C-16.34 25.33 -15.68 25.66 -15 26 C-14.09312506 21.56023058 -14.09312506 21.56023058 -14.46875 17.125 C-15.13745242 14.45019034 -15.09527742 12.00330312 -15.0625 9.25 C-15.05347656 8.26515625 -15.04445313 7.2803125 -15.03515625 6.265625 C-15.02355469 5.51796875 -15.01195312 4.7703125 -15 4 C-14.34 4.33 -13.68 4.66 -13 5 C-12.67 4.34 -12.34 3.68 -12 3 C-6.86340856 3.76097651 -3.45685361 7.36120673 0 11 C-0.66 10.21625 -1.32 9.4325 -2 8.625 C-4 6 -4 6 -4 4 C-3.21625 4.165 -2.4325 4.33 -1.625 4.5 C0.88208039 5.0623707 0.88208039 5.0623707 3 5 C1.68 4.34 0.36 3.68 -1 3 C-0.67 2.01 -0.34 1.02 0 0 Z M-13 24 C-12.01 24.99 -11.02 25.98 -10 27 C-9.01 26.67 -8.02 26.34 -7 26 C-9.8424854 24.42726432 -9.8424854 24.42726432 -13 24 Z M14 24 C14.33 24.66 14.66 25.32 15 26 C15.33 25.34 15.66 24.68 16 24 C15.34 24 14.68 24 14 24 Z M27.4921875 26.42578125 C26.95851562 27.04839844 26.42484375 27.67101562 25.875 28.3125 C25.06675781 29.23482422 25.06675781 29.23482422 24.2421875 30.17578125 C22.71857878 32.04545048 22.71857878 32.04545048 23 35 C24.65 35 26.3 35 28 35 C30.29045014 30.18790099 30.29045014 30.18790099 31 25 C28.89633599 24.77097814 28.89633599 24.77097814 27.4921875 26.42578125 Z " fill="#020315" transform="translate(28,11)"/>
<path d="M0 0 C4.88258495 1.39502427 7.22366818 3.79584039 10 8 C10.3125 11.875 10.3125 11.875 10 15 C8 15 8 15 6.375 13.5 C5.92125 13.005 5.4675 12.51 5 12 C3.70366379 13.06645115 3.70366379 13.06645115 3.9375 15.5625 C3.958125 16.366875 3.97875 17.17125 4 18 C8.17862632 16.68278915 8.17862632 16.68278915 12.125 14.8125 C14 14 14 14 16.125 14.1875 C18 15 18 15 20 18 C19.61021441 22.54749853 17.64443099 26.78167704 16 31 C16.99 30.67 17.98 30.34 19 30 C20.13545562 27.70465742 20.13545562 27.70465742 21 25 C21.9375 22.25 21.9375 22.25 23 20 C23.99 19.67 24.98 19.34 26 19 C25.60140439 20.92050612 25.18034074 22.83635712 24.75 24.75 C24.51796875 25.81734375 24.2859375 26.8846875 24.046875 27.984375 C22.8890858 31.31949912 21.77341003 32.84750266 19 35 C15.75 35.25 15.75 35.25 13 35 C13.495 37.97 13.495 37.97 14 41 C13.34 41 12.68 41 12 41 C12.495 42.98 12.495 42.98 13 45 C12.01 45 11.02 45 10 45 C10 45.66 10 46.32 10 47 C8.0625 46.6875 8.0625 46.6875 6 46 C5.67 45.01 5.34 44.02 5 43 C2.7986134 46.80427492 2.7986134 46.80427492 2 51 C0.02 51.66 -1.96 52.32 -4 53 C-4 49 -4 49 -3 47 C-6.465 47.495 -6.465 47.495 -10 48 C-10 46.02 -10 44.04 -10 42 C-11.98 41.67 -13.96 41.34 -16 41 C-16 41.99 -16 42.98 -16 44 C-17.32 44 -18.64 44 -20 44 C-20.33 41.36 -20.66 38.72 -21 36 C-18.03 35.505 -18.03 35.505 -15 35 C-15 34.01 -15 33.02 -15 32 C-15.66 32 -16.32 32 -17 32 C-17 31.34 -17 30.68 -17 30 C-15.35 29.67 -13.7 29.34 -12 29 C-11.855625 29.598125 -11.71125 30.19625 -11.5625 30.8125 C-11.1127561 32.56150404 -10.57107659 34.28677023 -10 36 C-6.99152582 37.22520264 -6.99152582 37.22520264 -4 38 C-4 38.99 -4 39.98 -4 41 C-3.01 41 -2.02 41 -1 41 C-1.495 36.05 -1.495 36.05 -2 31 C-0.68 31.33 0.64 31.66 2 32 C2.33 32.66 2.66 33.32 3 34 C4.32 34 5.64 34 7 34 C6.01 33.34 5.02 32.68 4 32 C3.5625 29.5625 3.5625 29.5625 4 27 C6 25.1875 6 25.1875 8 24 C6.68 23.67 5.36 23.34 4 23 C4 23.66 4 24.32 4 25 C1.69 25.33 -0.62 25.66 -3 26 C-5 19.25 -5 19.25 -5 17 C-4.01 16.67 -3.02 16.34 -2 16 C-2.66 15.34 -3.32 14.68 -4 14 C-4 12.68 -4 11.36 -4 10 C-4.66 10 -5.32 10 -6 10 C-7.98 6.535 -7.98 6.535 -10 3 C-8.68 2.34 -7.36 1.68 -6 1 C-2.65079784 3.35684596 0.14723863 6.06799526 3 9 C3.33 7.68 3.66 6.36 4 5 C3.01 4.319375 3.01 4.319375 2 3.625 C1.34 3.08875 0.68 2.5525 0 2 C0 1.34 0 0.68 0 0 Z M-2 20 C-1.67 20.66 -1.34 21.32 -1 22 C-0.67 21.34 -0.34 20.68 0 20 C-0.66 20 -1.32 20 -2 20 Z M11.4921875 22.42578125 C10.95851563 23.04839844 10.42484375 23.67101562 9.875 24.3125 C9.06675781 25.23482422 9.06675781 25.23482422 8.2421875 26.17578125 C6.71857878 28.04545048 6.71857878 28.04545048 7 31 C8.65 31 10.3 31 12 31 C14.29045014 26.18790099 14.29045014 26.18790099 15 21 C12.89633599 20.77097814 12.89633599 20.77097814 11.4921875 22.42578125 Z " fill="#01032E" transform="translate(44,15)"/>
<path d="M0 0 C4.88258495 1.39502427 7.22366818 3.79584039 10 8 C10.3125 11.875 10.3125 11.875 10 15 C8 15 8 15 6.375 13.5 C5.92125 13.005 5.4675 12.51 5 12 C3.70366379 13.06645115 3.70366379 13.06645115 3.9375 15.5625 C3.958125 16.366875 3.97875 17.17125 4 18 C8.17862632 16.68278915 8.17862632 16.68278915 12.125 14.8125 C14 14 14 14 16.125 14.1875 C18 15 18 15 20 18 C19.61021441 22.54749853 17.64443099 26.78167704 16 31 C16.99 30.67 17.98 30.34 19 30 C20.13545562 27.70465742 20.13545562 27.70465742 21 25 C21.9375 22.25 21.9375 22.25 23 20 C23.99 19.67 24.98 19.34 26 19 C25.60140439 20.92050612 25.18034074 22.83635712 24.75 24.75 C24.51796875 25.81734375 24.2859375 26.8846875 24.046875 27.984375 C22.8890858 31.31949912 21.77341003 32.84750266 19 35 C15.75 35.25 15.75 35.25 13 35 C12.67 35.66 12.34 36.32 12 37 C11.34 35.02 10.68 33.04 10 31 C10.66 31 11.32 31 12 31 C12.103125 30.236875 12.20625 29.47375 12.3125 28.6875 C13.06206532 25.757381 13.88598833 25.02209812 16 23 C16 22.01 16 21.02 16 20 C13.13275314 20.57344937 12.1385485 20.8614515 10 23 C6.875 23.125 6.875 23.125 4 23 C4 23.66 4 24.32 4 25 C1.69 25.33 -0.62 25.66 -3 26 C-5 19.25 -5 19.25 -5 17 C-4.01 16.67 -3.02 16.34 -2 16 C-2.66 15.34 -3.32 14.68 -4 14 C-4 12.68 -4 11.36 -4 10 C-4.66 10 -5.32 10 -6 10 C-7.98 6.535 -7.98 6.535 -10 3 C-8.68 2.34 -7.36 1.68 -6 1 C-2.65079784 3.35684596 0.14723863 6.06799526 3 9 C3.33 7.68 3.66 6.36 4 5 C3.01 4.319375 3.01 4.319375 2 3.625 C1.34 3.08875 0.68 2.5525 0 2 C0 1.34 0 0.68 0 0 Z M-2 20 C-1.67 20.66 -1.34 21.32 -1 22 C-0.67 21.34 -0.34 20.68 0 20 C-0.66 20 -1.32 20 -2 20 Z " fill="#00020A" transform="translate(44,15)"/>
<path d="M0 0 C1.89213369 2.38573379 3.02391783 4.07175348 4 7 C5.76234328 8.12781711 5.76234328 8.12781711 7.875 9 C10.19219227 10.026063 11.77611592 10.76351886 13.52734375 12.61328125 C15.11131532 14.40474885 15.11131532 14.40474885 18.6875 14.1875 C19.780625 14.125625 20.87375 14.06375 22 14 C22 13.34 22 12.68 22 12 C23.65 12 25.3 12 27 12 C25.625 14 25.625 14 24 16 C23.34 16 22.68 16 22 16 C22.27034634 18.43717258 22.27034634 18.43717258 23 21 C23.99 21.66 24.98 22.32 26 23 C24.35 23.33 22.7 23.66 21 24 C20.34 23.01 19.68 22.02 19 21 C18.01 20.67 17.02 20.34 16 20 C16.33 23.3 16.66 26.6 17 30 C15.35 30.33 13.7 30.66 12 31 C12.33 30.01 12.66 29.02 13 28 C12.236875 27.608125 11.47375 27.21625 10.6875 26.8125 C7.72858854 24.81695507 6.4858151 23.21926606 5 20 C5.33 19.34 5.66 18.68 6 18 C4.35 18.33 2.7 18.66 1 19 C1 19.66 1 20.32 1 21 C1.66 21 2.32 21 3 21 C3 21.99 3 22.98 3 24 C0.625 25.0625 0.625 25.0625 -2 26 C-2.66 25.67 -3.32 25.34 -4 25 C-3.67 23.35 -3.34 21.7 -3 20 C-2.01 19.67 -1.02 19.34 0 19 C0.33 18.01 0.66 17.02 1 16 C1.66 15.67 2.32 15.34 3 15 C2.835 14.401875 2.67 13.80375 2.5 13.1875 C2 11 2 11 2 8 C1.484375 7.175 0.96875 6.35 0.4375 5.5 C-0.2740625 4.2625 -0.2740625 4.2625 -1 3 C-0.67 2.01 -0.34 1.02 0 0 Z " fill="#3657B5" transform="translate(26,26)"/>
<path d="M0 0 C2.61885488 2.36944013 4.41866551 4.83733102 6 8 C5.67 8.99 5.34 9.98 5 11 C5.33 11.99 5.66 12.98 6 14 C5.01 14.33 4.02 14.66 3 15 C1.62131719 16.62935241 0.28725907 18.29749607 -1 20 C-1.66 20.66 -2.32 21.32 -3 22 C-3 21.01 -3 20.02 -3 19 C-4.60414215 20.18523997 -4.60414215 20.18523997 -6 22 C-6.25069913 24.62570704 -6.25069913 24.62570704 -6 27 C-7.98 26.34 -9.96 25.68 -12 25 C-12.90413673 21.16275828 -13.10576898 17.62497726 -13.0625 13.6875 C-13.05347656 12.61886719 -13.04445313 11.55023438 -13.03515625 10.44921875 C-13.02355469 9.64097656 -13.01195312 8.83273438 -13 8 C-12.01 8.495 -12.01 8.495 -11 9 C-10.34 8.34 -9.68 7.68 -9 7 C-7.68 7.66 -6.36 8.32 -5 9 C-4.54625 8.505 -4.0925 8.01 -3.625 7.5 C-2 6 -2 6 0 6 C0 4.02 0 2.04 0 0 Z " fill="#010205" transform="translate(24,28)"/>
<path d="M0 0 C8.71337403 0.57298831 14.97100897 2.24022218 21 9 C20.67 9.99 20.34 10.98 20 12 C16.39426104 12 15.58663434 11.18292538 12.8125 9 C12.09707031 8.443125 11.38164063 7.88625 10.64453125 7.3125 C10.10183594 6.879375 9.55914062 6.44625 9 6 C8.01 6.495 8.01 6.495 7 7 C7.495 7.78375 7.99 8.5675 8.5 9.375 C10 12 10 12 10 14 C10.66 14 11.32 14 12 14 C13.23921302 16.97411124 14.30058404 19.85262818 15 23 C14.67 22.34 14.34 21.68 14 21 C13.01 21 12.02 21 11 21 C11.33 21.66 11.66 22.32 12 23 C12.039992 24.99960012 12.04346799 27.00047242 12 29 C11.34 28.67 10.68 28.34 10 28 C10 27.34 10 26.68 10 26 C8.88625 25.566875 8.88625 25.566875 7.75 25.125 C5.43260203 24.17697356 3.22082885 23.15154089 1 22 C1 21.34 1 20.68 1 20 C1.49628906 19.58878906 1.99257813 19.17757813 2.50390625 18.75390625 C4.2799796 17.02101709 4.2799796 17.02101709 4.21484375 14.15234375 C4.12332031 13.09144531 4.03179687 12.03054687 3.9375 10.9375 C3.86402344 9.87402344 3.79054688 8.81054688 3.71484375 7.71484375 C3.28446002 4.8607263 3.28446002 4.8607263 0.94140625 3.62890625 C0.30074219 3.42136719 -0.33992188 3.21382812 -1 3 C-0.67 2.01 -0.34 1.02 0 0 Z " fill="#010435" transform="translate(28,11)"/>
<path d="M0 0 C1.75 0.9375 1.75 0.9375 3.75 3.9375 C3.36021441 8.48499853 1.39443099 12.71917704 -0.25 16.9375 C0.74 16.6075 1.73 16.2775 2.75 15.9375 C3.88545562 13.64215742 3.88545562 13.64215742 4.75 10.9375 C5.6875 8.1875 5.6875 8.1875 6.75 5.9375 C7.74 5.6075 8.73 5.2775 9.75 4.9375 C9.35140439 6.85800612 8.93034074 8.77385712 8.5 10.6875 C8.26796875 11.75484375 8.0359375 12.8221875 7.796875 13.921875 C6.6390858 17.25699912 5.52341003 18.78500266 2.75 20.9375 C-0.5 21.1875 -0.5 21.1875 -3.25 20.9375 C-3.58 21.5975 -3.91 22.2575 -4.25 22.9375 C-4.91 20.9575 -5.57 18.9775 -6.25 16.9375 C-5.59 16.9375 -4.93 16.9375 -4.25 16.9375 C-4.146875 16.174375 -4.04375 15.41125 -3.9375 14.625 C-3.18793468 11.694881 -2.36401167 10.95959812 -0.25 8.9375 C-0.25 7.9475 -0.25 6.9575 -0.25 5.9375 C-3.17879371 6.56509865 -5.61095629 7.52372659 -8.25 8.9375 C-8.625 6.6875 -8.625 6.6875 -8.25 3.9375 C-3.57577904 -0.0993272 -3.57577904 -0.0993272 0 0 Z " fill="#050334" transform="translate(60.25,29.0625)"/>
<path d="M0 0 C0.144375 0.598125 0.28875 1.19625 0.4375 1.8125 C0.8872439 3.56150404 1.42892341 5.28677023 2 7 C2.99 7.33 3.98 7.66 5 8 C5.12375 8.969375 5.2475 9.93875 5.375 10.9375 C5.58125 11.948125 5.7875 12.95875 6 14 C6.66 14.33 7.32 14.66 8 15 C7.67 16.32 7.34 17.64 7 19 C5.35 19 3.7 19 2 19 C2 17.02 2 15.04 2 13 C-0.97 12.505 -0.97 12.505 -4 12 C-4 12.99 -4 13.98 -4 15 C-5.32 15 -6.64 15 -8 15 C-8.33 12.36 -8.66 9.72 -9 7 C-7.02 6.67 -5.04 6.34 -3 6 C-3 5.01 -3 4.02 -3 3 C-3.66 3 -4.32 3 -5 3 C-5 2.34 -5 1.68 -5 1 C-3 0 -3 0 0 0 Z " fill="#010105" transform="translate(32,44)"/>
<path d="M0 0 C1.125 1.6875 1.125 1.6875 2 4 C1.125 6.75 1.125 6.75 0 9 C0.66 9 1.32 9 2 9 C2.33 6.03 2.66 3.06 3 0 C3.66 0.66 4.32 1.32 5 2 C4.625 5.125 4.625 5.125 4 8 C5.65 8.66 7.3 9.32 9 10 C9.33 12.64 9.66 15.28 10 18 C8.35 18.33 6.7 18.66 5 19 C5.33 18.01 5.66 17.02 6 16 C5.236875 15.608125 4.47375 15.21625 3.6875 14.8125 C0.72858854 12.81695507 -0.5141849 11.21926606 -2 8 C-1.67 7.34 -1.34 6.68 -1 6 C-2.65 6.33 -4.3 6.66 -6 7 C-6 7.66 -6 8.32 -6 9 C-5.34 9 -4.68 9 -4 9 C-4 9.99 -4 10.98 -4 12 C-6.375 13.0625 -6.375 13.0625 -9 14 C-9.66 13.67 -10.32 13.34 -11 13 C-10.67 11.35 -10.34 9.7 -10 8 C-9.01 7.67 -8.02 7.34 -7 7 C-6.67 6.01 -6.34 5.02 -6 4 C-4.68 4 -3.36 4 -2 4 C-1.34 2.68 -0.68 1.36 0 0 Z " fill="#080F31" transform="translate(33,38)"/>
<path d="M0 0 C0.99 0.33 1.98 0.66 3 1 C3 1.66 3 2.32 3 3 C3.99 3 4.98 3 6 3 C6.33 2.34 6.66 1.68 7 1 C7 1.99 7 2.98 7 4 C7.99 3.67 8.98 3.34 10 3 C9.67 6.3 9.34 9.6 9 13 C7.02 13.66 5.04 14.32 3 15 C3 12 3 9 3 6 C2.01 5.67 1.02 5.34 0 5 C0 3.35 0 1.7 0 0 Z " fill="#01032A" transform="translate(37,53)"/>
<path d="M0 0 C0.66 0 1.32 0 2 0 C1.60140439 1.92050612 1.18034074 3.83635712 0.75 5.75 C0.40195313 7.35101563 0.40195313 7.35101563 0.046875 8.984375 C-1.1109142 12.31949912 -2.22658997 13.84750266 -5 16 C-8.25 16.25 -8.25 16.25 -11 16 C-11.33 16.66 -11.66 17.32 -12 18 C-12.66 16.02 -13.32 14.04 -14 12 C-13.34 12 -12.68 12 -12 12 C-11.67 11.01 -11.34 10.02 -11 9 C-10.67 10.65 -10.34 12.3 -10 14 C-8.68 14 -7.36 14 -6 14 C-4.47750638 10.25232339 -3.06292098 6.47395834 -1.68359375 2.671875 C-1 1 -1 1 0 0 Z " fill="#010205" transform="translate(68,34)"/>
<path d="M0 0 C0.66 0.33 1.32 0.66 2 1 C2 1.66 2 2.32 2 3 C3.65 3.33 5.3 3.66 7 4 C7 4.66 7 5.32 7 6 C5.02 6.66 3.04 7.32 1 8 C1 8.99 1 9.98 1 11 C1.66 11.33 2.32 11.66 3 12 C3 12.99 3 13.98 3 15 C1 16 1 16 -1 17 C-1.66 16.67 -2.32 16.34 -3 16 C-2.4140625 9.84765625 -2.4140625 9.84765625 -2 8 C-1.34 7.67 -0.68 7.34 0 7 C-0.66 5.02 -1.32 3.04 -2 1 C-1.34 0.67 -0.68 0.34 0 0 Z " fill="#3855BA" transform="translate(18,19)"/>
<path d="M0 0 C3.37462715 0.54723683 5.08235 1.0549 8 3 C8.58203125 5.27734375 8.58203125 5.27734375 8.8125 7.9375 C8.94591797 9.25041016 8.94591797 9.25041016 9.08203125 10.58984375 C9 13 9 13 7 16 C6.34 16 5.68 16 5 16 C4.96132813 15.11248047 4.96132813 15.11248047 4.921875 14.20703125 C4.53752258 8.85230322 3.79066885 6.03522813 0 2 C0 1.34 0 0.68 0 0 Z " fill="#000103" transform="translate(24,15)"/>
<path d="M0 0 C0.33 0 0.66 0 1 0 C0.95875 1.051875 0.9175 2.10375 0.875 3.1875 C0.99147875 6.74010173 1.47208068 8.84866641 3 12 C2.01 12.33 1.02 12.66 0 13 C0.33 13.99 0.66 14.98 1 16 C0.01 16.99 -0.98 17.98 -2 19 C-1.979375 18.030625 -1.95875 17.06125 -1.9375 16.0625 C-1.64381501 13.12534105 -1.64381501 13.12534105 -3 12 C-3.07226502 10.14712498 -3.0838122 8.29166122 -3.0625 6.4375 C-3.05347656 5.42558594 -3.04445313 4.41367187 -3.03515625 3.37109375 C-3.02355469 2.58863281 -3.01195312 1.80617188 -3 1 C-2.01 1.495 -2.01 1.495 -1 2 C-0.67 1.34 -0.34 0.68 0 0 Z " fill="#16176D" transform="translate(16,14)"/>
<path d="M0 0 C0.33 0.66 0.66 1.32 1 2 C1.763125 1.814375 2.52625 1.62875 3.3125 1.4375 C6 1 6 1 9 2 C9 3.32 9 4.64 9 6 C7.68 6 6.36 6 5 6 C4.01 7.98 3.02 9.96 2 12 C1.87625 11.360625 1.7525 10.72125 1.625 10.0625 C1.41875 9.381875 1.2125 8.70125 1 8 C0.34 7.67 -0.32 7.34 -1 7 C-1.625 3.9375 -1.625 3.9375 -2 1 C-1.34 0.67 -0.68 0.34 0 0 Z " fill="#090817" transform="translate(45,50)"/>
<path d="M0 0 C1.89213369 2.38573379 3.02391783 4.07175348 4 7 C6.00016466 8.20882096 6.00016466 8.20882096 8 9 C7.50168276 12.68754757 6.89932357 14.60490662 4 17 C2 11.375 2 11.375 2 8 C1.484375 7.175 0.96875 6.35 0.4375 5.5 C-0.2740625 4.2625 -0.2740625 4.2625 -1 3 C-0.67 2.01 -0.34 1.02 0 0 Z " fill="#3C5CA9" transform="translate(26,26)"/>
<path d="M0 0 C0.94875 0.350625 1.8975 0.70125 2.875 1.0625 C3.205 3.3725 3.535 5.6825 3.875 8.0625 C2.225 8.3925 0.575 8.7225 -1.125 9.0625 C-0.795 8.0725 -0.465 7.0825 -0.125 6.0625 C-1.3625 5.4128125 -1.3625 5.4128125 -2.625 4.75 C-3.45 4.193125 -4.275 3.63625 -5.125 3.0625 C-5.125 2.0725 -5.125 1.0825 -5.125 0.0625 C-3.125 -0.9375 -3.125 -0.9375 0 0 Z " fill="#283262" transform="translate(39.125,47.9375)"/>
<path d="M0 0 C0.66 0.66 1.32 1.32 2 2 C1.34 2.66 0.68 3.32 0 4 C-0.103125 4.99 -0.20625 5.98 -0.3125 7 C-0.539375 7.99 -0.76625 8.98 -1 10 C-3.5625 11.375 -3.5625 11.375 -6 12 C-6 9 -6 6 -6 3 C-4.02 2.01 -2.04 1.02 0 0 Z " fill="#181C66" transform="translate(25,24)"/>
<path d="M0 0 C0.33 0.66 0.66 1.32 1 2 C1.66 2 2.32 2 3 2 C3.33 4.31 3.66 6.62 4 9 C3.01 9 2.02 9 1 9 C1 10.32 1 11.64 1 13 C2.98 13 4.96 13 7 13 C7 12.34 7 11.68 7 11 C8.65 10.67 10.3 10.34 12 10 C12 10.66 12 11.32 12 12 C10.68 12 9.36 12 8 12 C8 12.66 8 13.32 8 14 C5.69 14.33 3.38 14.66 1 15 C-1 8.25 -1 8.25 -1 6 C-0.01 5.67 0.98 5.34 2 5 C1.34 4.34 0.68 3.68 0 3 C0 2.01 0 1.02 0 0 Z " fill="#000127" transform="translate(40,26)"/>
<path d="M0 0 C4.24822374 0.47202486 6.19989709 2.96655518 9 6 C8.67 6.99 8.34 7.98 8 9 C4.41087588 9 3.89142971 8.33563446 1.3125 6 C0.68988281 5.443125 0.06726562 4.88625 -0.57421875 4.3125 C-1.04472656 3.879375 -1.51523437 3.44625 -2 3 C-1.34 2.67 -0.68 2.34 0 2 C0 1.34 0 0.68 0 0 Z " fill="#3147B2" transform="translate(40,14)"/>
<path d="M0 0 C3.78717347 1.48781815 5.77407001 3.61988409 8 7 C7.67 7.99 7.34 8.98 7 10 C7 9.34 7 8.68 7 8 C6.05125 8.20625 5.1025 8.4125 4.125 8.625 C3.09375 8.74875 2.0625 8.8725 1 9 C0.34 8.34 -0.32 7.68 -1 7 C-0.625 3.375 -0.625 3.375 0 0 Z " fill="#191F8E" transform="translate(35,24)"/>
<path d="M0 0 C0.33 0.66 0.66 1.32 1 2 C0.67 2.99 0.34 3.98 0 5 C-1.65 5.33 -3.3 5.66 -5 6 C-5 6.66 -5 7.32 -5 8 C-6.98 8 -8.96 8 -11 8 C-10.67 6.68 -10.34 5.36 -10 4 C-9.34 4 -8.68 4 -8 4 C-7.34 3.34 -6.68 2.68 -6 2 C-4.33985384 1.63557767 -2.67293936 1.30027117 -1 1 C-0.67 0.67 -0.34 0.34 0 0 Z " fill="#000205" transform="translate(52,31)"/>
<path d="M0 0 C0.66 0.33 1.32 0.66 2 1 C2 1.66 2 2.32 2 3 C1.34 3 0.68 3 0 3 C0 3.66 0 4.32 0 5 C0.66 5 1.32 5 2 5 C2 5.99 2 6.98 2 8 C-0.375 9.0625 -0.375 9.0625 -3 10 C-3.66 9.67 -4.32 9.34 -5 9 C-4.67 7.35 -4.34 5.7 -4 4 C-3.01 3.67 -2.02 3.34 -1 3 C-0.67 2.01 -0.34 1.02 0 0 Z " fill="#32376B" transform="translate(27,42)"/>
<path d="M0 0 C1.43791516 0.14168137 2.8753237 0.28851043 4.3125 0.4375 C5.11300781 0.51871094 5.91351563 0.59992187 6.73828125 0.68359375 C9 1 9 1 12 2 C11.67 2.99 11.34 3.98 11 5 C9.02 4.34 7.04 3.68 5 3 C5 3.66 5 4.32 5 5 C3.02 4.34 1.04 3.68 -1 3 C-0.67 2.01 -0.34 1.02 0 0 Z " fill="#000001" transform="translate(28,11)"/>
<path d="M0 0 C5.01113235 1.4317521 6.94469549 3.98445693 10 8 C9.34 8.66 8.68 9.32 8 10 C5.375 9.625 5.375 9.625 3 9 C3.33 7.68 3.66 6.36 4 5 C3.01 4.319375 3.01 4.319375 2 3.625 C1.34 3.08875 0.68 2.5525 0 2 C0 1.34 0 0.68 0 0 Z " fill="#030834" transform="translate(44,15)"/>
<path d="M0 0 C1.65 0 3.3 0 5 0 C2.19195732 2.96404505 -0.18315774 5.44499019 -4 7 C-4.33 6.34 -4.66 5.68 -5 5 C-5.66 5 -6.32 5 -7 5 C-7 4.34 -7 3.68 -7 3 C-3.535 2.505 -3.535 2.505 0 2 C0 1.34 0 0.68 0 0 Z " fill="#2545A8" transform="translate(48,38)"/>
<path d="M0 0 C2.97 0.495 2.97 0.495 6 1 C4.68 1.99 3.36 2.98 2 4 C2.226875 4.5775 2.45375 5.155 2.6875 5.75 C3 8 3 8 1.51953125 10.140625 C1.01808594 10.75421875 0.51664063 11.3678125 0 12 C-0.19477739 10.37585622 -0.38059458 8.75063577 -0.5625 7.125 C-0.66691406 6.22007813 -0.77132812 5.31515625 -0.87890625 4.3828125 C-1 2 -1 2 0 0 Z " fill="#0A0A26" transform="translate(33,14)"/>
<path d="M0 0 C1.9375 0.375 1.9375 0.375 4 1 C4.33 1.66 4.66 2.32 5 3 C6.98 3 8.96 3 11 3 C10.01 4.485 10.01 4.485 9 6 C5.79899154 6.33694826 3.07140568 5.91004613 0 5 C0 3.35 0 1.7 0 0 Z " fill="#111649" transform="translate(42,46)"/>
<path d="M0 0 C1.875 0.625 1.875 0.625 4 2 C5.25 5.125 5.25 5.125 6 8 C5.01 7.01 4.02 6.02 3 5 C2.34 7.31 1.68 9.62 1 12 C0.34 12 -0.32 12 -1 12 C-0.7525 10.9790625 -0.7525 10.9790625 -0.5 9.9375 C0.07089059 6.5835178 0.06659023 3.39610195 0 0 Z " fill="#304598" transform="translate(34,35)"/>
<path d="M0 0 C1.875 0.8125 1.875 0.8125 3.875 3.8125 C3.5 6.5 3.5 6.5 2.875 8.8125 C2.545 8.8125 2.215 8.8125 1.875 8.8125 C1.875 6.8325 1.875 4.8525 1.875 2.8125 C-0.105 2.8125 -2.085 2.8125 -4.125 2.8125 C-4.125 3.4725 -4.125 4.1325 -4.125 4.8125 C-4.785 4.8125 -5.445 4.8125 -6.125 4.8125 C-6.125 3.8225 -6.125 2.8325 -6.125 1.8125 C-3.90523089 0.46478304 -2.62352224 -0.23148726 0 0 Z " fill="#010219" transform="translate(60.125,29.1875)"/>
<path d="M0 0 C1.231394 2.46278801 1.07159196 4.2795055 1 7 C-0.65 7.66 -2.3 8.32 -4 9 C-4 4.31908701 -3.00354129 3.37898396 0 0 Z " fill="#1D2F95" transform="translate(44,59)"/>
<path d="M0 0 C0.33 0.66 0.66 1.32 1 2 C1.66 2 2.32 2 3 2 C3.66 3.32 4.32 4.64 5 6 C4.34 6 3.68 6 3 6 C3 6.66 3 7.32 3 8 C1.68 7.67 0.36 7.34 -1 7 C-1.04254356 5.00045254 -1.04080783 2.99958364 -1 1 C-0.67 0.67 -0.34 0.34 0 0 Z " fill="#212E70" transform="translate(51,54)"/>
<path d="M0 0 C0.33 0.66 0.66 1.32 1 2 C1.66 2 2.32 2 3 2 C3 1.34 3 0.68 3 0 C4.65 0 6.3 0 8 0 C8 0.66 8 1.32 8 2 C6.88625 2.433125 6.88625 2.433125 5.75 2.875 C3.43260203 3.82302644 1.22082885 4.84845911 -1 6 C-1.042721 4.33388095 -1.04063832 2.66617115 -1 1 C-0.67 0.67 -0.34 0.34 0 0 Z " fill="#0C0763" transform="translate(53,32)"/>
<path d="M0 0 C0.268125 0.61875 0.53625 1.2375 0.8125 1.875 C1.95556848 4.2995233 1.95556848 4.2995233 5 6 C3.35 6.33 1.7 6.66 0 7 C-0.66 6.01 -1.32 5.02 -2 4 C-2.99 3.34 -3.98 2.68 -5 2 C-3.35 1.34 -1.7 0.68 0 0 Z " fill="#2B59AF" transform="translate(47,43)"/>
<path d="M0 0 C1.65 0 3.3 0 5 0 C5 0.99 5 1.98 5 3 C3 5 3 5 1 6 C0.34 5.67 -0.32 5.34 -1 5 C-0.67 3.35 -0.34 1.7 0 0 Z " fill="#6C7CB9" transform="translate(16,30)"/>
<path d="M0 0 C0.99 0.33 1.98 0.66 3 1 C3 2.32 3 3.64 3 5 C3.66 5 4.32 5 5 5 C5 5.66 5 6.32 5 7 C5.66 7 6.32 7 7 7 C6.67 7.66 6.34 8.32 6 9 C3 8 3 8 1 6 C0.67 6 0.34 6 0 6 C0 4.02 0 2.04 0 0 Z " fill="#050730" transform="translate(17,14)"/>
<path d="M0 0 C0.33 0.66 0.66 1.32 1 2 C2.32 2 3.64 2 5 2 C4 4 4 4 2 5 C1.67 5.66 1.34 6.32 1 7 C0.34 7 -0.32 7 -1 7 C-1.33 5.02 -1.66 3.04 -2 1 C-1.34 0.67 -0.68 0.34 0 0 Z " fill="#0C060A" transform="translate(45,50)"/>
<path d="M0 0 C-0.49831724 3.68754757 -1.10067643 5.60490662 -4 8 C-4.66 6.02 -5.32 4.04 -6 2 C-2.25 0 -2.25 0 0 0 Z " fill="#8594B0" transform="translate(34,35)"/>
<path d="M0 0 C0 1.32 0 2.64 0 4 C-1.65 4.66 -3.3 5.32 -5 6 C-5 4.33333333 -5 2.66666667 -5 1 C-3 0 -3 0 0 0 Z " fill="#10154C" transform="translate(24,30)"/>
<path d="M0 0 C0.99 0 1.98 0 3 0 C3.33 1.32 3.66 2.64 4 4 C3.34 4 2.68 4 2 4 C2.33 5.32 2.66 6.64 3 8 C2.01 7.34 1.02 6.68 0 6 C-0.1875 2.875 -0.1875 2.875 0 0 Z " fill="#0E1036" transform="translate(54,52)"/>
<path d="M0 0 C0.99 0.33 1.98 0.66 3 1 C3 1.66 3 2.32 3 3 C3.66 3 4.32 3 5 3 C4.67 3.99 4.34 4.98 4 6 C4 5.34 4 4.68 4 4 C3.01 3.67 2.02 3.34 1 3 C0.34 4.98 -0.32 6.96 -1 9 C-1.33 9 -1.66 9 -2 9 C-1.125 1.125 -1.125 1.125 0 0 Z " fill="#05094B" transform="translate(35,22)"/>
<path d="M0 0 C2.31 0.33 4.62 0.66 7 1 C7 2.32 7 3.64 7 5 C5.68 5 4.36 5 3 5 C3 4.01 3 3.02 3 2 C2.01 1.34 1.02 0.68 0 0 Z " fill="#01073E" transform="translate(49,47)"/>
<path d="M0 0 C2.0625 0.4375 2.0625 0.4375 4 1 C3.67 2.32 3.34 3.64 3 5 C2.67 4.01 2.34 3.02 2 2 C-0.475 3.485 -0.475 3.485 -3 5 C-1.125 1.125 -1.125 1.125 0 0 Z " fill="#00011A" transform="translate(57,34)"/>
<path d="M0 0 C2 2 2 2 2.125 5.125 C2.08375 6.07375 2.0425 7.0225 2 8 C1.34 7.67 0.68 7.34 0 7 C0 6.34 0 5.68 0 5 C-0.66 4.67 -1.32 4.34 -2 4 C-1.34 2.68 -0.68 1.36 0 0 Z " fill="#030650" transform="translate(38,32)"/>
<path d="M0 0 C1.65 0.33 3.3 0.66 5 1 C4.67 1.66 4.34 2.32 4 3 C3.34 3 2.68 3 2 3 C2 3.99 2 4.98 2 6 C1.01 5.67 0.02 5.34 -1 5 C-1 4.34 -1 3.68 -1 3 C-0.34 2.67 0.32 2.34 1 2 C0.67 1.34 0.34 0.68 0 0 Z " fill="#445EB5" transform="translate(17,24)"/>
<path d="M0 0 C2.64 0.66 5.28 1.32 8 2 C7.67 2.99 7.34 3.98 7 5 C4.0625 4.1875 4.0625 4.1875 1 3 C0.67 2.01 0.34 1.02 0 0 Z " fill="#010213" transform="translate(32,11)"/>
<path d="M0 0 C2.625 0.9375 2.625 0.9375 5 2 C5 2.66 5 3.32 5 4 C2.0625 3.625 2.0625 3.625 -1 3 C-1.33 2.34 -1.66 1.68 -2 1 C-1.34 0.67 -0.68 0.34 0 0 Z " fill="#C7D7D2" transform="translate(36,47)"/>
</svg>
